<svg xmlns="http://www.w3.org/2000/svg" width="41.091" height="43" viewBox="0 0 41.091 43">
  <g id="Group_2353" data-name="Group 2353" transform="translate(-367.223 -1294)">
    <rect id="Rectangle_1958" data-name="Rectangle 1958" width="26.057" height="43" rx="5.035" transform="translate(382.256 1294)" fill="#5E17EB"/>
    <path id="Rectangle_1958_copy" data-name="Rectangle 1958 copy" d="M5.035,0H21.046a0,0,0,0,1,0,0V43a0,0,0,0,1,0,0H5.035A5.035,5.035,0,0,1,0,37.965V5.035A5.035,5.035,0,0,1,5.035,0Z" transform="translate(367.223 1294)" fill="#5322B4"/>
    <path id="Shape_2" data-name="Shape 2" d="M115.011,26.814a.728.728,0,0,0,.737-.721.744.744,0,0,0-.262-.585l-4.416-3.87,4.416-3.866a.748.748,0,0,0,.154-1.031.713.713,0,0,0-1.009-.158.844.844,0,0,0-.083.072l-5.056,4.424a.752.752,0,0,0-.081,1.042.743.743,0,0,0,.081.082l5.056,4.426a.7.7,0,0,0,.463.186Z" transform="translate(266 1294)" fill="#fff"/>
    <path id="Shape_2_copy_2" data-name="Shape 2 copy 2" d="M130.3,16.435a.728.728,0,0,0-.737.721.744.744,0,0,0,.262.585l4.416,3.87-4.416,3.866a.748.748,0,0,0-.154,1.031.713.713,0,0,0,1.009.158.834.834,0,0,0,.083-.072l5.056-4.424a.752.752,0,0,0,.081-1.042.744.744,0,0,0-.081-.082l-5.056-4.426a.7.7,0,0,0-.463-.186Z" transform="translate(266 1294)" fill="#fff"/>
  </g>
</svg>